<?xml version="1.0" encoding="utf-8"?>
<svg viewBox="0 0 500 500" xmlns="http://www.w3.org/2000/svg" xmlns:bx="https://boxy-svg.com">
  <defs>
    <radialGradient gradientUnits="userSpaceOnUse" cx="255.851" cy="166.824" r="78.63" id="gradient-0" spreadMethod="repeat">
      <stop offset="0" style="stop-color: #bada55"/>
      <stop offset="1" style="stop-color: #758d29"/>
    </radialGradient>
  </defs>
  <path d="M 258.163 164.512 Q 258.163 164.089 258.548 163.845 Q 258.96 163.584 259.498 163.741 Q 260.096 163.916 260.475 164.512 Q 260.901 165.181 260.833 166.053 Q 260.757 167.029 260.09 167.849 Q 259.351 168.758 258.163 169.136 Q 256.86 169.551 255.465 169.184 Q 253.95 168.786 252.823 167.595 Q 251.608 166.311 251.226 164.512 Q 250.818 162.586 251.488 160.658 Q 252.202 158.607 253.924 157.17 Q 255.748 155.648 258.163 155.263 Q 260.71 154.858 263.173 155.835 Q 265.76 156.861 267.508 159.117 Q 269.338 161.479 269.724 164.512 Q 270.127 167.679 268.843 170.678 Q 267.504 173.801 264.714 175.859 Q 261.814 177.998 258.163 178.385 Q 254.376 178.787 250.841 177.194 Q 247.182 175.545 244.813 172.219 Q 242.366 168.782 241.978 164.512 Q 241.577 160.105 243.478 156.034 Q 245.438 151.838 249.3 149.16 Q 253.274 146.403 258.163 146.014 Q 263.19 145.614 267.797 147.825 Q 272.529 150.095 275.517 154.492 Q 278.583 159.003 278.973 164.512 Q 279.372 170.158 276.852 175.302 Q 274.272 180.57 269.339 183.869 Q 264.291 187.244 258.163 187.634 Q 251.897 188.033 246.217 185.204 Q 240.412 182.313 236.804 176.844 Q 233.119 171.259 232.729 164.512 Q 232.33 157.627 235.469 151.409 Q 238.67 145.069 244.675 141.15 Q 250.796 137.156 258.163 136.765 Q 265.668 136.367 272.422 139.815 Q 279.299 143.326 283.527 149.868 Q 287.831 156.526 288.222 164.512 Q 288.62 172.636 284.862 179.927 Q 281.041 187.34 273.963 191.879 Q 266.768 196.492 258.163 196.883 Q 249.419 197.281 241.592 193.214 Q 233.642 189.083 228.794 181.468 Q 223.871 173.737 223.48 164.512 Q 223.082 155.149 227.459 146.785 Q 231.9 138.299 240.051 133.141 Q 248.319 127.908 258.163 127.517 Q 268.146 127.119 277.046 131.806 Q 286.069 136.556 291.537 145.244 Q 297.079 154.048 297.471 164.512 Q 297.868 175.114 292.872 184.551 Q 287.811 194.11 278.588 199.888 Q 269.246 205.74 258.163 206.132 Q 246.941 206.529 236.968 201.223 Q 226.872 195.853 220.784 186.093 Q 214.623 176.215 214.231 164.512 Q 213.834 152.671 219.449 142.161 Q 225.13 131.528 235.426 125.131 Q 245.841 118.66 258.163 118.268 Q 270.624 117.871 281.67 123.796 Q 292.839 129.786 299.547 140.619 Q 306.327 151.57 306.719 164.512 Q 307.116 177.593 300.882 189.176 Q 294.581 200.881 283.212 207.898 Q 271.724 214.988 258.163 215.381 Q 244.463 215.777 232.343 209.233 Q 220.102 202.623 212.774 190.717 Q 205.375 178.693 204.982 164.512 Q 204.586 150.192 211.44 137.536 Q 218.359 124.758 230.802 117.121 Q 243.363 109.411 258.163 109.019 Q 273.102 108.623 286.295 115.786 Q 299.61 123.016 307.556 135.995 Q 315.576 149.092 315.968 164.512 Q 316.365 180.071 308.891 193.8 Q 301.352 207.651 287.836 215.908 Q 274.203 224.237 258.163 224.63 Q 241.985 225.026 227.719 217.243 Q 213.331 209.393 204.765 195.342 Q 196.126 181.171 195.733 164.512 Q 195.337 147.714 203.43 132.912 Q 211.589 117.988 226.177 109.111 Q 240.884 100.163 258.163 99.77 Q 275.58 99.374 290.919 107.776 Q 306.38 116.245 315.566 131.37 Q 324.824 146.614 325.217 164.512 Q 325.613 182.549 316.901 198.424 Q 308.122 214.422 292.461 223.918 Q 276.681 233.485 258.163 233.878 Q 239.507 234.274 223.094 225.253 Q 206.561 216.164 196.755 199.966 Q 186.877 183.649 186.484 164.512 Q 186.089 145.236 195.42 128.287 Q 204.818 111.217 221.553 101.102 Q 238.406 90.914 258.163 90.521 Q 278.059 90.125 295.544 99.767 Q 313.151 109.475 323.576 126.746 Q 334.073 144.136 334.466 164.512 Q 334.862 185.027 324.911 203.049 Q 314.893 221.192 297.085 231.927 Q 279.159 242.734 258.163 243.127 Q 237.028 243.523 218.47 233.262 Q 199.79 222.934 188.745 204.59 Q 177.629 186.127 177.236 164.512 Q 176.84 142.758 187.41 123.663 Q 189.441 119.995 191.837 116.553" style="stroke: black; fill: url(#gradient-0); paint-order: fill; fill-opacity: 0.61;" bx:shape="spiral 258.163 164.512 0 81.849 0 3185.87 1@0083d86f"/>
</svg>